<svg width="20" height="21" viewBox="0 0 20 21" fill="none" xmlns="http://www.w3.org/2000/svg">
<mask id="mask0_1453_5157" style="mask-type:alpha" maskUnits="userSpaceOnUse" x="3" y="4" width="14" height="14">
<path fill-rule="evenodd" clip-rule="evenodd" d="M13.333 7.62899C13.333 9.47065 11.8413 10.9623 9.99967 10.9623C8.15801 10.9623 6.66634 9.47065 6.66634 7.62899C6.66634 5.78732 8.15801 4.29565 9.99967 4.29565C11.8413 4.29565 13.333 5.78732 13.333 7.62899ZM3.33301 15.9623C3.33301 13.7457 7.77467 12.629 9.99967 12.629C12.2247 12.629 16.6663 13.7457 16.6663 15.9623V16.7957C16.6663 17.254 16.2913 17.629 15.833 17.629H4.16634C3.70801 17.629 3.33301 17.254 3.33301 16.7957V15.9623Z" fill="black"/>
</mask>
<g mask="url(#mask0_1453_5157)">
<rect y="0.962402" width="20" height="20" fill="#636363"/>
</g>
</svg>
